<?xml version="1.0" encoding="UTF-8"?>
<svg width="22px" height="22px" viewBox="0 0 22 22" version="1.1" xmlns="http://www.w3.org/2000/svg" xmlns:xlink="http://www.w3.org/1999/xlink">
    <!-- Generator: Sketch 48.2 (47327) - http://www.bohemiancoding.com/sketch -->
    <title>Combined Shape</title>
    <desc>Created with Sketch.</desc>
    <defs></defs>
    <g id="1.首页-copy-5" stroke="none" stroke-width="1" fill="none" fill-rule="evenodd" transform="translate(-237.000000, -1377.000000)">
        <g id="Group-12" transform="translate(0.000000, 776.000000)" fill="#AAAEB2" fill-rule="nonzero">
            <g id="card" transform="translate(0.000000, 322.000000)">
                <path d="M245.735105,300.999908 C244.769107,301.002488 243.803731,300.950614 242.843561,300.844534 C241.164954,300.68366 239.934159,300.476036 239.089361,300.209287 C238.122308,299.904038 237.589329,299.734914 237.622297,299.121666 C237.653406,298.7975 237.889756,298.530375 238.207474,298.460294 C238.982216,298.328294 239.631955,298.12342 240.160812,297.845671 C240.156691,297.644922 240.060535,297.462048 239.89707,297.277799 C239.033939,296.322883 238.339483,295.227875 237.843456,294.039687 C237.311665,292.769585 237.02591,291.409875 237.001405,290.032954 C236.977451,288.563482 237.260033,287.10517 237.831093,285.751222 C238.394291,284.431227 239.175901,283.258357 240.153944,282.265611 C241.149663,281.261466 242.328473,280.457712 243.626544,279.897871 C244.976835,279.314417 246.430659,279.00906 247.901359,279 L247.906854,279 C249.494799,279 250.891807,279.277749 252.184416,279.826372 C253.504499,280.385994 254.681722,281.160116 255.685864,282.125362 C256.699223,283.105764 257.510783,284.275474 258.07465,285.568348 C258.658453,286.886967 258.962031,288.318336 258.977141,289.82258 C259.001346,291.208628 258.749654,292.585632 258.236741,293.873313 C257.740719,295.113663 257.019264,296.251213 256.108949,297.228299 C255.192161,298.205162 254.113518,299.015979 252.920696,299.624914 C251.685932,300.258719 250.343739,300.656034 248.963195,300.796409 C248.628023,300.843159 248.24752,300.883034 247.845039,300.914659 C247.142952,300.967973 246.439201,300.996408 245.735105,300.999908 Z M240.601755,299.160166 C241.248747,299.281166 242.044093,299.385665 242.980926,299.47504 C244.137827,299.603887 245.302446,299.649837 246.46589,299.612539 C246.932932,299.598789 247.354645,299.575414 247.736521,299.545164 C248.112902,299.514915 248.467305,299.476415 248.79973,299.432415 C250.017859,299.30982 251.20249,298.961032 252.292935,298.403919 C253.34517,297.866723 254.296887,297.151774 255.106181,296.290553 C255.900866,295.437158 256.530572,294.44366 256.963363,293.36044 C257.408103,292.240293 257.626154,291.042883 257.60486,289.837705 C257.589141,287.301813 256.55441,284.878976 254.73392,283.115358 C253.838526,282.256622 252.792635,281.57049 251.648691,281.091366 C250.5024,280.611911 249.271433,280.368283 248.029109,280.374994 C246.59364,280.390119 245.335371,280.654118 244.174633,281.160116 C243.037097,281.649207 242.004128,282.352684 241.131986,283.232232 C240.265963,284.114048 239.574725,285.152149 239.094856,286.291595 C238.598652,287.467156 238.353475,288.733579 238.37506,290.009579 C238.395958,291.209065 238.643934,292.3937 239.105845,293.50069 C239.542262,294.547543 240.153576,295.51237 240.913575,296.353803 C241.254242,296.736051 241.463037,297.154049 241.539962,297.600923 C241.645733,298.21142 241.377871,298.742168 240.807804,299.057041 C240.739815,299.092788 240.671118,299.12717 240.601755,299.160166 Z M241.816067,289.999954 C241.816067,289.430413 242.277321,288.968708 242.846308,288.968708 C243.415295,288.968708 243.876549,289.430413 243.876549,289.999954 C243.876549,290.569495 243.415295,291.0312 242.846308,291.0312 C242.277321,291.0312 241.816067,290.569495 241.816067,289.999954 Z M246.960405,289.999954 C246.960405,289.430413 247.42166,288.968708 247.990647,288.968708 C248.559634,288.968708 249.020888,289.430413 249.020888,289.999954 C249.020888,290.569495 248.559634,291.0312 247.990647,291.0312 C247.42166,291.0312 246.960405,290.569495 246.960405,289.999954 Z M252.104744,289.999954 C252.104744,289.631526 252.301107,289.291083 252.619865,289.106869 C252.938623,288.922655 253.331349,288.922655 253.650106,289.106869 C253.968864,289.291083 254.165227,289.631526 254.165227,289.999954 C254.165227,290.569495 253.703972,291.0312 253.134986,291.0312 C252.565999,291.0312 252.104744,290.569495 252.104744,289.999954 Z" id="Combined-Shape"></path>
            </g>
        </g>
    </g>
</svg>