<?xml version="1.0" encoding="UTF-8"?>
<svg width="42px" height="26px" viewBox="0 0 42 26" version="1.1" xmlns="http://www.w3.org/2000/svg" xmlns:xlink="http://www.w3.org/1999/xlink">
    <!-- Generator: Sketch 48.2 (47327) - http://www.bohemiancoding.com/sketch -->
    <title>EQ</title>
    <desc>Created with Sketch.</desc>
    <defs></defs>
    <g id="1.首页-copy-5" stroke="none" stroke-width="1" fill="none" fill-rule="evenodd" transform="translate(-214.000000, -323.000000)">
        <path d="M233.620787,324.166275 L232.67866,328.580811 L230.955915,328.580811 L231.467355,326.265871 L231.036668,325.673677 L224.441783,325.673677 L222.961298,332.645414 L227.510423,332.645414 L227.994946,332.241645 L228.237207,331.111093 L229.959952,331.111093 L228.990908,335.714054 L227.268162,335.714054 L227.510423,334.583502 L227.187408,334.152816 L222.638283,334.152816 L221.077045,341.501403 L228.129535,341.501403 L228.775565,340.963045 L229.340841,338.325091 L231.063586,338.325091 L230.067624,343.008805 L215.316614,343.008805 L215.612711,341.501403 L218.06224,341.501403 L221.426978,325.673677 L218.977449,325.673677 L219.300464,324.166275 L233.620787,324.166275 Z M255.316614,346.53505 C254.401401,347.199028 253.454798,347.683546 252.476776,347.988617 C251.498754,348.293688 250.525233,348.446221 249.556184,348.446221 C248.730697,348.446221 247.869333,348.293688 246.972065,347.988617 C246.074797,347.683546 245.141653,347.338103 244.172604,346.952278 C243.203554,346.566453 242.189657,346.189606 241.130881,345.821726 C240.072105,345.453846 238.968482,345.207101 237.819979,345.081484 L238.250666,344.004768 C238.681354,343.950932 239.103064,343.924014 239.515807,343.924014 C240.538692,343.924014 241.530158,344.036171 242.490235,344.260488 C243.450311,344.484805 244.410374,344.73155 245.37045,345.00073 C246.330527,345.26991 247.308534,345.516655 248.304501,345.740972 C249.300469,345.965289 250.336797,346.077446 251.413519,346.077446 C251.98777,346.077446 252.584444,346.032583 253.203559,345.942856 C253.822674,345.85313 254.455238,345.709569 255.101271,345.51217 L255.316614,346.53505 Z M235.020518,335.391039 C235.020518,333.937466 235.249317,332.515317 235.706924,331.124552 C236.164531,329.733787 236.864389,328.500062 237.80652,327.423341 C238.748651,326.34662 239.937513,325.480769 241.373142,324.825764 C242.808771,324.170758 244.495609,323.84326 246.433707,323.84326 C247.636046,323.84326 248.739669,324.018225 249.744609,324.368159 C250.749549,324.718094 251.606427,325.225042 252.315269,325.889021 C253.02411,326.552999 253.575922,327.351555 253.970719,328.284714 C254.365517,329.217872 254.562913,330.258687 254.562913,331.40719 C254.562913,332.842819 254.365517,334.273939 253.970719,335.700595 C253.575922,337.127251 252.938871,338.405839 252.059548,339.536396 C251.180226,340.666954 250.049685,341.582153 248.667893,342.282022 C247.286101,342.981891 245.617207,343.33182 243.661164,343.33182 C242.602388,343.33182 241.561572,343.179287 240.538687,342.874216 C239.515802,342.569145 238.59163,342.0936 237.766143,341.447567 C236.940657,340.801534 236.276689,339.980546 235.774219,338.984579 C235.271749,337.988612 235.020518,336.790777 235.020518,335.391039 Z M238.385255,335.417957 C238.385255,336.56646 238.542275,337.544467 238.856318,338.352009 C239.170362,339.15955 239.583099,339.819032 240.094542,340.330474 C240.605984,340.841917 241.193686,341.218764 241.857664,341.461026 C242.521642,341.703288 243.194583,341.824418 243.876507,341.824418 C245.276245,341.824418 246.442675,341.505892 247.375834,340.868832 C248.308992,340.231772 249.0582,339.410784 249.623478,338.405844 C250.188757,337.400904 250.592522,336.283823 250.834784,335.054566 C251.077046,333.825309 251.198176,332.618502 251.198176,331.434108 C251.198176,329.442174 250.722631,327.9303 249.771527,326.898442 C248.820423,325.866584 247.483514,325.350663 245.76076,325.350663 C244.486639,325.350663 243.383017,325.646757 242.449858,326.238953 C241.516699,326.83115 240.749547,327.602789 240.148378,328.553893 C239.547208,329.504997 239.103067,330.581702 238.815941,331.784041 C238.528816,332.98638 238.385255,334.197673 238.385255,335.417957 Z" id="EQ" stroke="#F679AD" fill="#F679AE"></path>
    </g>
</svg>