<?xml version="1.0" encoding="UTF-8"?>
<svg width="22px" height="20px" viewBox="0 0 22 20" version="1.1" xmlns="http://www.w3.org/2000/svg" xmlns:xlink="http://www.w3.org/1999/xlink">
    <!-- Generator: Sketch 48.2 (47327) - http://www.bohemiancoding.com/sketch -->
    <title>Fill 1</title>
    <desc>Created with Sketch.</desc>
    <defs></defs>
    <g id="1.首页-copy-5" stroke="none" stroke-width="1" fill="none" fill-rule="evenodd" transform="translate(-333.000000, -1379.000000)">
        <g id="Group-12" transform="translate(0.000000, 776.000000)" fill="#AAAEB2">
            <g id="card" transform="translate(0.000000, 322.000000)">
                <path d="M352.415234,290.255915 L344,298.893489 L335.602085,290.273234 C334.829745,289.394638 334.404255,288.286681 334.404255,287.153915 C334.404255,284.534511 336.534979,282.404255 339.154383,282.404255 C340.938723,282.404255 342.555957,283.407362 343.37417,285.022255 C343.493064,285.25817 343.735532,285.407021 344,285.407021 C344.264936,285.407021 344.506936,285.25817 344.626298,285.022255 C345.444511,283.407362 347.061277,282.404255 348.846085,282.404255 C351.465489,282.404255 353.595745,284.534511 353.595745,287.153915 C353.595745,288.290894 353.167915,289.40166 352.415234,290.255915 M348.846085,281 C346.92366,281 345.151957,281.894043 344,283.392383 C342.848511,281.894043 341.076809,281 339.154383,281 C335.760766,281 333,283.760766 333,287.153915 C333,288.627915 333.549532,290.065404 334.57183,291.226723 L343.497277,300.389489 C343.629277,300.525234 343.810894,300.602 344,300.602 C344.189574,300.602 344.370723,300.525234 344.503191,300.389489 L353.444553,291.210809 C354.44766,290.074298 355,288.633532 355,287.153915 C355,283.760766 352.239702,281 348.846085,281" id="Fill-1"></path>
            </g>
        </g>
    </g>
</svg>