<?xml version="1.0" encoding="UTF-8"?>
<svg width="42px" height="32px" viewBox="0 0 42 32" version="1.1" xmlns="http://www.w3.org/2000/svg" xmlns:xlink="http://www.w3.org/1999/xlink">
    <!-- Generator: Sketch 48.2 (47327) - http://www.bohemiancoding.com/sketch -->
    <title>IQ</title>
    <desc>Created with Sketch.</desc>
    <defs></defs>
    <g id="1.首页-copy-5" stroke="none" stroke-width="1" fill="none" fill-rule="evenodd" transform="translate(-122.000000, -321.000000)">
        <path d="M132.824297,345.607585 L123.184953,345.607585 L123.578396,343.77152 L126.562002,343.77152 L130.660363,324.492831 L127.676756,324.492831 L128.070199,322.656766 L137.709543,322.656766 L137.316101,324.492831 L134.332494,324.492831 L130.234133,343.77152 L133.21774,343.77152 L132.824297,345.607585 Z M163.184953,349.902667 C162.070193,350.711414 160.917199,351.301572 159.725937,351.673159 C158.534674,352.044746 157.348893,352.230536 156.16856,352.230536 C155.16309,352.230536 154.11392,352.044746 153.021019,351.673159 C151.928117,351.301572 150.791516,350.880812 149.611182,350.410864 C148.430849,349.940916 147.195888,349.481904 145.906264,349.033815 C144.616641,348.585725 143.272392,348.285182 141.873478,348.132175 L142.398068,346.8207 C142.922661,346.755126 143.436317,346.722339 143.939051,346.722339 C145.184959,346.722339 146.392597,346.85895 147.562002,347.132175 C148.731407,347.405401 149.900794,347.705944 151.070199,348.033815 C152.239604,348.361685 153.430849,348.662229 154.643969,348.935454 C155.85709,349.208679 157.119373,349.34529 158.430855,349.34529 C159.130312,349.34529 159.85708,349.290646 160.611182,349.181356 C161.365285,349.072066 162.135769,348.897204 162.922658,348.656766 L163.184953,349.902667 Z M138.463642,336.328897 C138.463642,334.558396 138.742327,332.826173 139.299707,331.132175 C139.857087,329.438178 140.709537,327.935461 141.857084,326.623979 C143.004631,325.312497 144.452704,324.257862 146.201346,323.460044 C147.949989,322.662226 150.004613,322.263323 152.365281,322.263323 C153.829769,322.263323 155.174018,322.476436 156.398068,322.902667 C157.622118,323.328899 158.665823,323.946379 159.529215,324.755126 C160.392608,325.563873 161.064732,326.536541 161.545609,327.673159 C162.026485,328.809777 162.26692,330.077524 162.26692,331.476438 C162.26692,333.22508 162.026485,334.968232 161.545609,336.705946 C161.064732,338.443659 160.288783,340.001021 159.21774,341.378077 C158.146696,342.755133 156.769661,343.869876 155.086592,344.722339 C153.403524,345.574803 151.370757,346.001028 148.988232,346.001028 C147.698608,346.001028 146.430861,345.815237 145.184953,345.443651 C143.939045,345.072064 142.813373,344.492835 141.807904,343.705946 C140.802434,342.919057 139.993699,341.919067 139.381674,340.705946 C138.769649,339.492825 138.463642,338.033823 138.463642,336.328897 Z M142.562002,336.361684 C142.562002,337.760598 142.753257,338.951843 143.135773,339.935454 C143.518288,340.919066 144.021015,341.722336 144.643969,342.34529 C145.266923,342.968244 145.982763,343.427256 146.79151,343.722339 C147.600258,344.017423 148.419922,344.164962 149.250527,344.164962 C150.955453,344.164962 152.376204,343.776988 153.512822,343.001028 C154.64944,342.225068 155.561999,341.225078 156.250527,340.001028 C156.939055,338.776978 157.430853,337.416336 157.725937,335.919061 C158.02102,334.421785 158.16856,332.951855 158.16856,331.509225 C158.16856,329.082983 157.58933,327.241471 156.430855,325.984634 C155.272379,324.727797 153.64398,324.099388 151.545609,324.099388 C149.993688,324.099388 148.64944,324.460041 147.512822,325.181356 C146.376204,325.902671 145.441787,326.842552 144.709543,328.001028 C143.977299,329.159504 143.436321,330.470966 143.086592,331.935454 C142.736864,333.399942 142.562002,334.875337 142.562002,336.361684 Z" id="IQ" stroke="#75C31D" fill="#75C41D"></path>
    </g>
</svg>