<?xml version="1.0" encoding="UTF-8"?>
<svg width="40px" height="25px" viewBox="0 0 40 25" version="1.1" xmlns="http://www.w3.org/2000/svg" xmlns:xlink="http://www.w3.org/1999/xlink">
    <!-- Generator: Sketch 48.2 (47327) - http://www.bohemiancoding.com/sketch -->
    <title>三观</title>
    <desc>Created with Sketch.</desc>
    <defs></defs>
    <g id="1.首页-copy-5" stroke="none" stroke-width="1" fill="none" fill-rule="evenodd" transform="translate(-121.000000, -418.000000)">
        <path d="M143.721202,441.599987 C144.258117,441.024083 144.753644,440.405504 145.20273,439.749549 C146.397863,440.305333 147.720516,440.614087 149.111878,440.614087 C154.446441,440.614087 158.770994,436.075445 158.770994,430.476756 C158.770994,424.878068 154.446441,420.339397 149.111878,420.339397 C147.716584,420.339397 146.390389,420.649896 145.192601,421.208648 C144.742807,420.553239 144.246608,419.935247 143.709056,419.359974 C145.330098,418.490452 147.166415,418 149.111878,418 C155.677503,418 161,423.586025 161,430.476728 C161,437.36743 155.677502,442.953455 149.111878,442.953455 C147.171272,442.953455 145.339267,442.465449 143.721202,441.599987 Z M152.826933,430.086828 C153.852795,430.086828 154.684461,429.214013 154.684461,428.13733 C154.684461,427.060647 153.852822,426.187833 152.826933,426.187833 C151.801044,426.187833 150.969405,427.060647 150.969405,428.13733 C150.969405,429.214013 151.801044,430.086828 152.826933,430.086828 Z M147.668237,434.000108 C147.787128,433.447237 147.87856,432.883444 147.94095,432.310392 C148.319887,432.231194 148.711254,432.189598 149.111878,432.189598 C151.88978,432.189598 154.357242,434.200239 155.055939,436.868364 C155.055939,436.868364 155.055939,437.650879 154.331966,437.650879 C153.608021,437.650879 153.493328,436.868364 153.493328,436.868364 C152.828976,435.058962 151.04752,433.749168 149.111878,433.749168 C148.613004,433.749168 148.127211,433.836786 147.668237,434.000108 Z M132.888122,442.953455 C126.322498,442.953455 121,437.36743 121,430.476728 C121,423.586025 126.322497,418 132.888122,418 C139.453747,418 144.776244,423.586025 144.776244,430.476728 C144.776244,437.36743 139.453747,442.953455 132.888122,442.953455 Z M132.888122,440.614087 C138.222685,440.614087 142.547239,436.075445 142.547239,430.476756 C142.547239,424.878068 138.222685,420.339397 132.888122,420.339397 C127.553559,420.339397 123.229033,424.878039 123.229033,430.476728 C123.229033,436.075416 127.553559,440.614087 132.888122,440.614087 Z M129.173094,430.086828 C128.147205,430.086828 127.315567,429.214013 127.315567,428.13733 C127.315567,427.060647 128.147205,426.187833 129.173094,426.187833 C130.198983,426.187833 131.030622,427.060647 131.030622,428.13733 C131.030622,429.214013 130.198956,430.086828 129.173094,430.086828 Z M136.603177,430.086828 C135.577288,430.086828 134.74565,429.214013 134.74565,428.13733 C134.74565,427.060647 135.577288,426.187833 136.603177,426.187833 C137.629067,426.187833 138.460705,427.060647 138.460705,428.13733 C138.460705,429.214013 137.629039,430.086828 136.603177,430.086828 Z M132.888122,436.091252 C134.823764,436.091252 136.60522,434.781487 137.269545,432.972056 C137.269545,432.972056 137.384238,432.189541 138.108183,432.189541 C138.832156,432.189541 138.832156,432.972056 138.832156,432.972056 C138.133459,435.640181 135.665998,437.650822 132.888095,437.650822 C130.106515,437.650822 127.771206,435.64564 126.944034,432.972056 C126.944034,432.972056 126.889534,432.189541 127.674162,432.189541 C128.458818,432.189541 128.530749,432.972056 128.530749,432.972056 C129.299363,434.836227 131.000063,436.091252 132.888122,436.091252 Z" id="三观" fill="#948EFF" fill-rule="nonzero"></path>
    </g>
</svg>