<?xml version="1.0" encoding="UTF-8"?>
<svg width="41px" height="38px" viewBox="0 0 41 38" version="1.1" xmlns="http://www.w3.org/2000/svg" xmlns:xlink="http://www.w3.org/1999/xlink">
    <!-- Generator: Sketch 48.2 (47327) - http://www.bohemiancoding.com/sketch -->
    <title>两性</title>
    <desc>Created with Sketch.</desc>
    <defs></defs>
    <g id="1.首页-copy-5" stroke="none" stroke-width="1" fill="none" fill-rule="evenodd" transform="translate(-216.000000, -412.000000)">
        <path d="M246.972179,423.501794 C250.016848,423.859945 252.551024,426.119675 253.167177,429.13198 L256.256222,441.214132 C256.405692,441.81824 256.274906,442.441031 255.895003,442.933036 C255.521329,443.425041 254.942133,443.705297 254.319341,443.717753 C254.319341,443.717753 252.799731,443.723981 251.603971,443.730209 C251.217841,444.882373 250.638645,446.626189 250.1155,448.270358 C249.860155,449.086215 249.094122,449.640499 248.23467,449.640499 L244.024601,449.640499 C243.158921,449.640499 242.38666,449.079987 242.125087,448.257902 C241.601942,446.613733 241.028974,444.925968 240.642844,443.773805 C239.447084,443.767577 237.927474,443.736437 237.927474,443.736437 C237.31091,443.723981 236.725486,443.431269 236.351812,442.939264 C235.978137,442.447259 235.847351,441.812012 235.99682,441.214132 L239.110777,429.019878 C239.698791,426.108352 242.238749,423.856195 245.281968,423.501025 C242.568457,423.092667 240.480918,420.755046 240.480918,417.94042 C240.480918,414.838919 243.015679,412.316614 246.129635,412.316614 C249.243592,412.316614 251.778353,414.838919 251.778353,417.94042 C251.778353,420.756818 249.688185,423.095609 246.972179,423.501794 Z M231.662193,417.94042 C231.662193,421.041921 229.127432,423.564226 226.013475,423.564226 C222.899519,423.564226 220.364758,421.041921 220.364758,417.94042 C220.364758,414.838919 222.899519,412.316614 226.013475,412.316614 C229.127432,412.316614 231.662193,414.838919 231.662193,417.94042 Z M223.092584,424.025091 C229.389004,422.032159 235.753932,426.808969 235.753932,432.937235 L235.753932,439.582419 C235.753932,440.323541 235.143596,440.933876 234.396247,440.933876 L231.867714,440.933876 L231.867714,449.12981 C231.867714,449.410066 231.637281,449.634271 231.357025,449.634271 L220.713521,449.634271 C220.433265,449.634271 220.202832,449.410066 220.202832,449.12981 L220.202832,440.933876 L216.92695,440.933876 C216.590643,440.933876 216.316614,440.659848 216.316614,440.329768 L216.316614,433.541343 C216.316614,429.256539 218.994617,425.320497 223.092584,424.025091 Z" id="两性" fill="#E979F0" fill-rule="nonzero"></path>
    </g>
</svg>