<?xml version="1.0" encoding="UTF-8"?>
<svg width="41px" height="32px" viewBox="0 0 41 32" version="1.1" xmlns="http://www.w3.org/2000/svg" xmlns:xlink="http://www.w3.org/1999/xlink">
    <!-- Generator: Sketch 48.2 (47327) - http://www.bohemiancoding.com/sketch -->
    <title>亲子</title>
    <desc>Created with Sketch.</desc>
    <defs></defs>
    <g id="1.首页-copy-5" stroke="none" stroke-width="1" fill="none" fill-rule="evenodd" transform="translate(-309.000000, -415.000000)">
        <path d="M327.863365,431.229508 C326.850666,430.509322 326.07157,430.723237 325.53311,431.836878 C324.902537,433.14162 324.923397,434.540742 325.061137,435.926113 C325.30185,438.347543 326.528777,440.363331 327.862584,442.312789 C328.519486,443.272829 329.250376,444.182165 329.943921,445.11736 C330.009784,445.206036 330.061192,445.31065 330.097287,445.41542 C330.256044,445.876533 330.011424,446.173811 329.549061,446.058259 C328.756996,445.86036 328.017121,445.519018 327.415768,444.971495 C326.275563,443.933326 325.184189,442.841952 324.056642,441.789642 C323.409114,441.185397 322.728148,440.620374 321.855377,440.351534 C321.074016,440.110743 320.412503,440.418724 320.17554,441.182663 C320.078583,441.495411 320.017877,441.83355 320.018893,442.159892 C320.022174,443.183607 320.062723,444.207088 320.088896,445.230724 C320.089912,445.269789 320.080067,445.31354 320.094287,445.347058 C320.295076,445.818484 320.134757,446.153263 319.705833,446.38882 C319.601688,446.38882 319.497465,446.38882 319.39332,446.38882 C319.044946,445.945677 318.63696,445.536753 318.358823,445.053217 C317.324014,443.254235 316.711956,441.290949 316.293501,439.271645 C316.09404,438.308948 315.960753,437.324453 315.897781,436.343318 C315.797543,434.780986 315.782698,433.213186 315.726759,431.647885 C315.720899,431.483894 315.701289,431.315059 315.653318,431.159193 C315.545188,430.807303 315.301975,430.65464 314.986337,430.828241 C314.398031,431.151849 313.769801,431.462877 313.295797,431.921412 C312.331225,432.854421 311.460485,433.884152 310.544899,434.868178 C310.414972,435.007871 310.265825,435.148502 310.096911,435.227646 C309.936827,435.302727 309.696191,435.375855 309.56978,435.306399 C309.43829,435.23413 309.350005,434.995527 309.331567,434.820285 C309.242422,433.973765 309.568764,433.208889 309.862605,432.445106 C310.423019,430.98817 311.339308,429.765775 312.368492,428.606585 C313.606903,427.211604 315.055402,426.114527 316.747114,425.341603 C317.679966,424.915335 318.660007,424.645793 319.682707,424.515084 C321.069719,424.337811 322.435089,424.413283 323.76327,424.845411 C324.899802,425.21527 325.942659,425.772012 326.89559,426.509543 C329.049274,428.176411 330.417535,430.417052 331.574225,432.817232 C331.697824,433.073727 331.91502,433.433742 331.605242,433.611328 C331.382576,433.739067 330.950214,433.710785 330.720048,433.571951 C330.241903,433.283579 329.833682,432.878094 329.400695,432.515969 C328.888017,432.087123 328.4062,431.615462 327.863365,431.229508 Z M346.181716,436.667707 C345.143548,437.492038 344.491254,438.527551 344.776657,439.934563 C344.954008,440.808506 345.176205,441.673465 345.350197,442.548111 C345.543486,443.519793 345.696305,444.498272 345.402309,445.481126 C345.328321,445.728245 345.229957,445.919113 344.906584,445.921301 C344.584227,445.923488 344.500708,445.728089 344.39961,445.491204 C343.987952,444.526163 343.519885,443.616594 342.476247,443.154231 C341.106033,442.547252 339.82051,443.186966 339.545655,444.669763 C339.5037,444.89571 339.472058,445.126814 339.469324,445.356042 C339.465808,445.652852 339.466277,445.953646 339.11634,446.044353 C338.779841,446.131544 338.515221,445.956068 338.315447,445.701135 C337.763705,444.997277 337.541586,444.162789 337.36736,443.305018 C337.165711,442.312554 337.138913,441.311887 337.126959,440.303563 C337.114224,439.236643 336.837572,438.754748 335.769089,438.405436 C334.836862,438.100658 333.91112,437.767128 333.008113,437.385393 C332.56786,437.199292 332.165421,436.900841 331.787593,436.600516 C331.616883,436.464807 331.496643,436.212453 331.446329,435.991897 C331.383826,435.71712 331.593522,435.5368 331.851111,435.545159 C332.77951,435.575317 333.706971,435.636022 334.634588,435.687978 C335.072575,435.712432 335.50986,435.757043 335.948003,435.767747 C336.520527,435.781732 337.094067,435.757824 337.666513,435.773528 C340.145993,435.841656 342.555157,435.489766 344.863067,434.558868 C345.951785,434.11963 347.028627,433.649923 348.10461,433.179903 C348.532753,432.992864 348.938786,432.847936 349.316614,433.263266 C349.316614,433.471634 349.316614,433.679924 349.316614,433.888292 C348.552207,435.132407 347.278481,435.79681 346.181716,436.667707 Z M320.008424,421.859738 C319.223781,421.114941 318.805014,420.179823 318.853844,419.070714 C318.779153,417.479709 319.917092,415.79706 321.570599,415.295789 C323.768504,414.62951 326.235015,416.05918 326.499323,418.364512 C326.668471,419.839965 326.211576,421.131191 325.269974,422.222253 C324.784407,422.784933 324.083283,423.073695 323.294891,423.105181 C322.014524,423.156511 320.918072,422.723133 320.008424,421.859738 Z M339.810276,434.805987 C338.937348,434.724031 338.117704,434.44605 337.464083,433.790241 C336.521387,432.844811 336.462634,431.826643 336.978047,430.727378 C337.415878,429.793198 338.165597,429.159968 339.134856,428.821594 C341.242289,428.085938 343.247999,429.900624 343.136744,431.781875 C343.156901,433.699222 341.65676,434.979276 339.810276,434.805987 Z" id="亲子" fill="#4FCEB2" fill-rule="nonzero"></path>
    </g>
</svg>