<?xml version="1.0" encoding="UTF-8"?>
<svg width="41px" height="41px" viewBox="0 0 41 41" version="1.1" xmlns="http://www.w3.org/2000/svg" xmlns:xlink="http://www.w3.org/1999/xlink">
    <!-- Generator: Sketch 48.2 (47327) - http://www.bohemiancoding.com/sketch -->
    <title>压力</title>
    <desc>Created with Sketch.</desc>
    <defs></defs>
    <g id="1.首页-copy-5" stroke="none" stroke-width="1" fill="none" fill-rule="evenodd" transform="translate(-28.000000, -411.000000)">
        <path d="M64.8516405,425.482943 C66.6924623,425.482943 68.184953,426.975433 68.184953,428.816255 C68.184953,430.657077 66.6924623,432.149568 64.8516405,432.149568 C63.0108186,432.149568 61.518328,430.657077 61.518328,428.816255 C61.518328,426.975433 63.0108186,425.482943 64.8516405,425.482943 Z M57.8920173,430.08783 C58.5703464,429.466168 59.6253398,429.512001 60.2470026,430.19033 C60.8686654,430.868659 60.8228323,431.922819 60.1445032,432.544482 L51.427891,440.535265 L55.1970342,444.304408 C55.8478634,444.955238 55.8478634,446.010231 55.1970342,446.66106 L53.8753757,447.982719 L54.0187082,447.982719 C54.9387024,447.982719 55.6853644,448.729381 55.6853644,449.649375 C55.6853644,450.570202 54.9387024,451.316031 54.0187082,451.316031 L49.8520676,451.316031 C49.1770718,451.316031 48.5695756,450.9102 48.3120772,450.286871 C48.0537455,449.664375 48.1962446,448.947713 48.6729083,448.471049 L51.6612229,445.482734 L49.1129055,442.934417 L45.2837628,447.401056 C44.9670981,447.77022 44.5054343,447.982719 44.0187707,447.982719 L36.5188176,447.982719 L36.5188176,449.649375 C36.5188176,450.570202 35.7721556,451.316031 34.8521613,451.316031 C33.9313337,451.316031 33.1855051,450.570202 33.1855051,449.649375 L33.1855051,446.316062 C33.1855051,445.396068 33.9313337,444.649406 34.8521613,444.649406 L43.2521088,444.649406 L47.752914,439.397772 C47.7754139,439.371939 47.8029137,439.351939 47.8270802,439.326939 C47.8495801,439.304439 47.8679133,439.27694 47.8920798,439.25444 L53.8245427,433.81614 L53.6895436,433.81614 L46.6095878,438.536111 C46.3354229,438.71861 46.0145915,438.816109 45.6854269,438.816109 L43.1854426,438.816109 C42.264615,438.816109 41.5187863,438.070281 41.5187863,437.149453 C41.5187863,436.229459 42.264615,435.482797 43.1854426,435.482797 L45.1804301,435.482797 L52.2603858,430.762826 C52.5345508,430.580327 52.8562154,430.482828 53.1853801,430.482828 L55.6853644,430.482828 C56.1611948,430.482828 56.5878588,430.684493 56.8911902,431.005325 L57.8920173,430.08783 Z M39.8515467,411.316614 C46.2948398,411.316614 51.5181405,416.539915 51.5181405,422.983208 C51.5181405,429.426501 46.2948398,434.649802 39.8515467,434.649802 C33.4082537,434.649802 28.184953,429.426501 28.184953,422.983208 C28.184953,416.539915 33.4082537,411.316614 39.8515467,411.316614 Z M46.3365062,427.382347 C46.6948373,426.792351 46.5081718,426.023189 45.9181755,425.664858 L40.2990439,422.249046 L40.2990439,417.581575 C40.2990439,416.89158 39.7398808,416.331583 39.0490517,416.331583 C38.3590561,416.331583 37.7990596,416.89158 37.7990596,417.581575 L37.7990596,422.952375 C37.7990596,423.389039 38.0273915,423.793203 38.3998891,424.019868 L44.6190169,427.800678 C44.822349,427.924011 45.0456809,427.983177 45.2673462,427.983177 C45.6890102,427.983177 46.1015077,427.769012 46.3365062,427.382347 Z" id="压力" fill="#F5A724"></path>
    </g>
</svg>